<?xml version="1.0" encoding="UTF-8" ?>
<svg version="1.1" width="15" height="15" xmlns="http://www.w3.org/2000/svg" shape-rendering="crispEdges">
<rect x="0" y="0" width="15" height="1" fill="#FFC0CB" />
<rect x="0" y="1" width="15" height="1" fill="#F5C2CE" />
<rect x="0" y="2" width="15" height="1" fill="#ECC5D1" />
<rect x="0" y="3" width="15" height="1" fill="#DACAD7" />
<rect x="0" y="4" width="15" height="1" fill="#D1CDDA" />
<rect x="0" y="5" width="15" height="1" fill="#BFD2E0" />
<rect x="0" y="6" width="15" height="1" fill="#B6D5E3" />
<rect x="0" y="7" width="15" height="1" fill="#ADD8E6" />
<rect x="0" y="8" width="15" height="1" fill="#B5DBE3" />
<rect x="0" y="9" width="15" height="1" fill="#BDDFE1" />
<rect x="0" y="10" width="15" height="1" fill="#CEE6DC" />
<rect x="0" y="11" width="15" height="1" fill="#D7EADA" />
<rect x="0" y="12" width="15" height="1" fill="#E8F2D6" />
<rect x="0" y="13" width="15" height="1" fill="#F1F6D4" />
<rect x="0" y="14" width="15" height="1" fill="#FAFAD2" />
</svg>