<?xml version="1.0" encoding="UTF-8" ?>
<svg version="1.1" width="30" height="22" xmlns="http://www.w3.org/2000/svg" shape-rendering="crispEdges">
<rect x="0" y="0" width="30" height="1" fill="#FFC0CB" />
<rect x="0" y="1" width="30" height="1" fill="#FBC0CC" />
<rect x="0" y="2" width="30" height="1" fill="#F8C1CD" />
<rect x="0" y="3" width="30" height="1" fill="#EFC4D0" />
<rect x="0" y="4" width="30" height="1" fill="#E9C6D2" />
<rect x="0" y="5" width="30" height="1" fill="#DACAD7" />
<rect x="0" y="6" width="30" height="1" fill="#D1CDDA" />
<rect x="0" y="7" width="30" height="1" fill="#C2D1DF" />
<rect x="0" y="8" width="30" height="1" fill="#BCD3E1" />
<rect x="0" y="9" width="30" height="1" fill="#B3D6E4" />
<rect x="0" y="10" width="30" height="1" fill="#B0D7E5" />
<rect x="0" y="11" width="30" height="1" fill="#ABD8E2" />
<rect x="0" y="12" width="30" height="1" fill="#AAD9DF" />
<rect x="0" y="13" width="30" height="1" fill="#A7DBD5" />
<rect x="0" y="14" width="30" height="1" fill="#A5DDCF" />
<rect x="0" y="15" width="30" height="1" fill="#9FE1BF" />
<rect x="0" y="16" width="30" height="1" fill="#9CE3B5" />
<rect x="0" y="17" width="30" height="1" fill="#97E7A5" />
<rect x="0" y="18" width="30" height="1" fill="#95E99F" />
<rect x="0" y="19" width="30" height="1" fill="#92EC96" />
<rect x="0" y="20" width="30" height="1" fill="#91ED93" />
<rect x="0" y="21" width="30" height="1" fill="#90EE90" />
</svg>