<?xml version="1.0" encoding="UTF-8" ?>
<svg version="1.1" width="70" height="70" xmlns="http://www.w3.org/2000/svg" shape-rendering="crispEdges">
<rect x="0" y="0" width="70" height="7" fill="#000000" />
<rect x="0" y="7" width="70" height="2" fill="#010101" />
<rect x="0" y="9" width="70" height="1" fill="#020202" />
<rect x="0" y="10" width="70" height="1" fill="#030303" />
<rect x="0" y="11" width="70" height="1" fill="#040404" />
<rect x="0" y="12" width="70" height="1" fill="#060606" />
<rect x="0" y="13" width="70" height="1" fill="#070707" />
<rect x="0" y="14" width="70" height="1" fill="#080808" />
<rect x="0" y="15" width="70" height="1" fill="#0B0B0B" />
<rect x="0" y="16" width="70" height="1" fill="#0D0D0D" />
<rect x="0" y="17" width="70" height="1" fill="#101010" />
<rect x="0" y="18" width="70" height="1" fill="#121212" />
<rect x="0" y="19" width="70" height="1" fill="#161616" />
<rect x="0" y="20" width="70" height="1" fill="#1A1A1A" />
<rect x="0" y="21" width="70" height="1" fill="#1E1E1E" />
<rect x="0" y="22" width="70" height="1" fill="#232323" />
<rect x="0" y="23" width="70" height="1" fill="#272727" />
<rect x="0" y="24" width="70" height="1" fill="#2F2F2F" />
<rect x="0" y="25" width="70" height="1" fill="#323232" />
<rect x="0" y="26" width="70" height="1" fill="#3A3A3A" />
<rect x="0" y="27" width="70" height="1" fill="#414141" />
<rect x="0" y="28" width="70" height="1" fill="#484848" />
<rect x="0" y="29" width="70" height="1" fill="#505050" />
<rect x="0" y="30" width="70" height="1" fill="#565656" />
<rect x="0" y="31" width="70" height="1" fill="#606060" />
<rect x="0" y="32" width="70" height="1" fill="#646464" />
<rect x="0" y="33" width="70" height="1" fill="#6E6E6E" />
<rect x="0" y="34" width="70" height="1" fill="#777777" />
<rect x="0" y="35" width="70" height="1" fill="#7F7F7F" />
<rect x="0" y="36" width="70" height="1" fill="#888888" />
<rect x="0" y="37" width="70" height="1" fill="#8E8E8E" />
<rect x="0" y="38" width="70" height="1" fill="#999999" />
<rect x="0" y="39" width="70" height="1" fill="#9D9D9D" />
<rect x="0" y="40" width="70" height="1" fill="#A6A6A6" />
<rect x="0" y="41" width="70" height="1" fill="#AEAEAE" />
<rect x="0" y="42" width="70" height="1" fill="#B6B6B6" />
<rect x="0" y="43" width="70" height="1" fill="#BDBDBD" />
<rect x="0" y="44" width="70" height="1" fill="#C2C2C2" />
<rect x="0" y="45" width="70" height="1" fill="#CACACA" />
<rect x="0" y="46" width="70" height="1" fill="#CDCDCD" />
<rect x="0" y="47" width="70" height="1" fill="#D4D4D4" />
<rect x="0" y="48" width="70" height="1" fill="#D9D9D9" />
<rect x="0" y="49" width="70" height="1" fill="#DEDEDE" />
<rect x="0" y="50" width="70" height="1" fill="#E3E3E3" />
<rect x="0" y="51" width="70" height="1" fill="#E6E6E6" />
<rect x="0" y="52" width="70" height="1" fill="#EAEAEA" />
<rect x="0" y="53" width="70" height="1" fill="#ECECEC" />
<rect x="0" y="54" width="70" height="1" fill="#F0F0F0" />
<rect x="0" y="55" width="70" height="1" fill="#F2F2F2" />
<rect x="0" y="56" width="70" height="1" fill="#F4F4F4" />
<rect x="0" y="57" width="70" height="1" fill="#F6F6F6" />
<rect x="0" y="58" width="70" height="1" fill="#F7F7F7" />
<rect x="0" y="59" width="70" height="1" fill="#F8F8F8" />
<rect x="0" y="60" width="70" height="1" fill="#F9F9F9" />
<rect x="0" y="61" width="70" height="1" fill="#FAFAFA" />
<rect x="0" y="62" width="70" height="1" fill="#FBFBFB" />
<rect x="0" y="63" width="70" height="3" fill="#FCFCFC" />
<rect x="0" y="66" width="70" height="2" fill="#FDFDFD" />
<rect x="0" y="68" width="70" height="2" fill="#FEFEFE" />
</svg>