<?xml version="1.0" encoding="UTF-8" ?>
<svg version="1.1" width="70" height="32" xmlns="http://www.w3.org/2000/svg" shape-rendering="crispEdges">
<rect x="0" y="0" width="70" height="1" fill="#010101" />
<rect x="0" y="1" width="70" height="1" fill="#020202" />
<rect x="0" y="2" width="70" height="1" fill="#030303" />
<rect x="0" y="3" width="70" height="1" fill="#040404" />
<rect x="0" y="4" width="70" height="1" fill="#060606" />
<rect x="0" y="5" width="70" height="1" fill="#070707" />
<rect x="0" y="6" width="70" height="1" fill="#080808" />
<rect x="0" y="7" width="70" height="1" fill="#0B0B0B" />
<rect x="0" y="8" width="70" height="1" fill="#0D0D0D" />
<rect x="0" y="9" width="70" height="1" fill="#101010" />
<rect x="0" y="10" width="70" height="1" fill="#121212" />
<rect x="0" y="11" width="70" height="1" fill="#161616" />
<rect x="0" y="12" width="70" height="1" fill="#1A1A1A" />
<rect x="0" y="13" width="70" height="1" fill="#1E1E1E" />
<rect x="0" y="14" width="70" height="1" fill="#232323" />
<rect x="0" y="15" width="70" height="1" fill="#272727" />
<rect x="0" y="16" width="70" height="1" fill="#2F2F2F" />
<rect x="0" y="17" width="70" height="1" fill="#323232" />
<rect x="0" y="18" width="70" height="1" fill="#3A3A3A" />
<rect x="0" y="19" width="70" height="1" fill="#414141" />
<rect x="0" y="20" width="70" height="1" fill="#484848" />
<rect x="0" y="21" width="70" height="1" fill="#505050" />
<rect x="0" y="22" width="70" height="1" fill="#565656" />
<rect x="0" y="23" width="70" height="1" fill="#606060" />
<rect x="0" y="24" width="70" height="1" fill="#646464" />
<rect x="0" y="25" width="70" height="1" fill="#6E6E6E" />
<rect x="0" y="26" width="70" height="1" fill="#777777" />
<rect x="0" y="27" width="70" height="1" fill="#7F7F7F" />
<rect x="0" y="28" width="70" height="1" fill="#888888" />
<rect x="0" y="29" width="70" height="1" fill="#8E8E8E" />
<rect x="0" y="30" width="70" height="1" fill="#999999" />
<rect x="0" y="31" width="70" height="1" fill="#9D9D9D" />
</svg>