<?xml version="1.0" encoding="UTF-8" ?>
<svg version="1.1" width="16" height="16" xmlns="http://www.w3.org/2000/svg" shape-rendering="crispEdges">
<rect x="7" y="1" width="1" height="1" fill="#000000" />
<rect x="5" y="2" width="1" height="1" fill="#FFFFFF" opacity="0.066667" />
<rect x="6" y="2" width="1" height="2" fill="#000000" />
<rect x="7" y="2" width="1" height="1" fill="#FBC3B6" />
<rect x="8" y="2" width="1" height="1" fill="#000000" />
<rect x="9" y="2" width="1" height="1" fill="#FFFFFF" opacity="0.121569" />
<rect x="10" y="2" width="1" height="1" fill="#FFFFFF" opacity="0.066667" />
<rect x="3" y="3" width="1" height="1" fill="#FFFFFF" opacity="0.019608" />
<rect x="4" y="3" width="1" height="1" fill="#FFFFFF" opacity="0.121569" />
<rect x="5" y="3" width="1" height="1" fill="#FFFFFF" opacity="0.207843" />
<rect x="7" y="3" width="1" height="1" fill="#000000" />
<rect x="8" y="3" width="1" height="1" fill="#FBC3B6" />
<rect x="9" y="3" width="1" height="1" fill="#000000" />
<rect x="10" y="3" width="1" height="1" fill="#FFFFFF" opacity="0.207843" />
<rect x="11" y="3" width="1" height="1" fill="#FFFFFF" opacity="0.121569" />
<rect x="12" y="3" width="1" height="1" fill="#FFFFFF" opacity="0.019608" />
<rect x="3" y="4" width="1" height="1" fill="#FFFFFF" opacity="0.121569" />
<rect x="4" y="4" width="2" height="1" fill="#000000" />
<rect x="6" y="4" width="2" height="1" fill="#FBC3B6" />
<rect x="8" y="4" width="1" height="1" fill="#FC9982" />
<rect x="9" y="4" width="1" height="1" fill="#FBC3B6" />
<rect x="10" y="4" width="2" height="1" fill="#000000" />
<rect x="12" y="4" width="1" height="1" fill="#FFFFFF" opacity="0.121569" />
<rect x="2" y="5" width="2" height="1" fill="#000000" />
<rect x="4" y="5" width="2" height="1" fill="#FBC3B6" />
<rect x="6" y="5" width="2" height="1" fill="#FC9982" />
<rect x="8" y="5" width="2" height="2" fill="#E77C56" />
<rect x="10" y="5" width="1" height="1" fill="#C15A36" />
<rect x="11" y="5" width="1" height="1" fill="#9C4E31" />
<rect x="12" y="5" width="2" height="1" fill="#000000" />
<rect x="1" y="6" width="1" height="1" fill="#000000" />
<rect x="2" y="6" width="2" height="1" fill="#FBC3B6" />
<rect x="4" y="6" width="2" height="1" fill="#FC9982" />
<rect x="6" y="6" width="2" height="1" fill="#E77C56" />
<rect x="10" y="6" width="1" height="2" fill="#E77C56" />
<rect x="11" y="6" width="1" height="3" fill="#C15A36" />
<rect x="12" y="6" width="2" height="1" fill="#9C4E31" />
<rect x="14" y="6" width="1" height="1" fill="#000000" />
<rect x="0" y="7" width="1" height="3" fill="#000000" />
<rect x="1" y="7" width="1" height="1" fill="#FBC3B6" />
<rect x="2" y="7" width="1" height="1" fill="#FC9982" />
<rect x="3" y="7" width="1" height="1" fill="#E77C56" />
<rect x="4" y="7" width="1" height="1" fill="#FC9982" />
<rect x="5" y="7" width="1" height="1" fill="#E77C56" />
<rect x="6" y="7" width="1" height="4" fill="#F9E3D3" />
<rect x="7" y="7" width="2" height="1" fill="#E77C56" />
<rect x="9" y="7" width="1" height="4" fill="#F9E3D3" />
<rect x="12" y="7" width="2" height="1" fill="#E77C56" />
<rect x="14" y="7" width="1" height="3" fill="#9C4E31" />
<rect x="15" y="7" width="1" height="3" fill="#000000" />
<rect x="1" y="8" width="2" height="1" fill="#9C4E31" />
<rect x="3" y="8" width="1" height="1" fill="#9C4529" />
<rect x="4" y="8" width="1" height="1" fill="#C15A36" />
<rect x="5" y="8" width="1" height="2" fill="#F9E3D3" />
<rect x="7" y="8" width="2" height="3" fill="#F9E3D3" />
<rect x="10" y="8" width="1" height="2" fill="#F9E3D3" />
<rect x="12" y="8" width="1" height="1" fill="#E77C56" />
<rect x="13" y="8" width="1" height="1" fill="#9C4E31" />
<rect x="1" y="9" width="1" height="1" fill="#9C4E31" />
<rect x="2" y="9" width="1" height="1" fill="#E77C56" />
<rect x="3" y="9" width="1" height="1" fill="#9C4E31" />
<rect x="4" y="9" width="1" height="1" fill="#D5A57A" />
<rect x="11" y="9" width="1" height="1" fill="#D5A57A" />
<rect x="12" y="9" width="1" height="1" fill="#9C4E31" />
<rect x="13" y="9" width="1" height="1" fill="#9C4529" />
<rect x="1" y="10" width="1" height="1" fill="#000000" />
<rect x="2" y="10" width="1" height="1" fill="#9C4E31" />
<rect x="3" y="10" width="1" height="1" fill="#9C4529" />
<rect x="4" y="10" width="1" height="1" fill="#9C4E31" />
<rect x="5" y="10" width="1" height="1" fill="#D5A57A" />
<rect x="10" y="10" width="1" height="1" fill="#D5A57A" />
<rect x="11" y="10" width="1" height="1" fill="#9C4E31" />
<rect x="12" y="10" width="1" height="1" fill="#9C4529" />
<rect x="13" y="10" width="1" height="1" fill="#9C4E31" />
<rect x="14" y="10" width="1" height="1" fill="#000000" />
<rect x="2" y="11" width="1" height="1" fill="#000000" />
<rect x="3" y="11" width="1" height="1" fill="#9C4E31" />
<rect x="4" y="11" width="2" height="1" fill="#000000" />
<rect x="6" y="11" width="4" height="1" fill="#D5A57A" />
<rect x="10" y="11" width="2" height="1" fill="#000000" />
<rect x="12" y="11" width="1" height="1" fill="#9C4E31" />
<rect x="13" y="11" width="1" height="1" fill="#000000" />
<rect x="3" y="12" width="1" height="1" fill="#000000" />
<rect x="4" y="12" width="1" height="1" fill="#FFFFFF" opacity="0.121569" />
<rect x="5" y="12" width="1" height="1" fill="#FFFFFF" opacity="0.207843" />
<rect x="6" y="12" width="4" height="1" fill="#000000" />
<rect x="10" y="12" width="1" height="1" fill="#FFFFFF" opacity="0.207843" />
<rect x="11" y="12" width="1" height="1" fill="#FFFFFF" opacity="0.121569" />
<rect x="12" y="12" width="1" height="1" fill="#000000" />
<rect x="5" y="13" width="1" height="1" fill="#FFFFFF" opacity="0.066667" />
<rect x="6" y="13" width="1" height="1" fill="#FFFFFF" opacity="0.121569" />
<rect x="7" y="13" width="2" height="1" fill="#FFFFFF" opacity="0.149020" />
<rect x="9" y="13" width="1" height="1" fill="#FFFFFF" opacity="0.121569" />
<rect x="10" y="13" width="1" height="1" fill="#FFFFFF" opacity="0.066667" />
</svg>