<?xml version="1.0" encoding="UTF-8" ?>
<svg version="1.1" width="16" height="16" xmlns="http://www.w3.org/2000/svg" shape-rendering="crispEdges">
<rect x="5" y="2" width="1" height="1" fill="#FFFFFF" opacity="0.066667" />
<rect x="6" y="2" width="4" height="1" fill="#FF9EC1" />
<rect x="10" y="2" width="1" height="1" fill="#FFFFFF" opacity="0.066667" />
<rect x="3" y="3" width="1" height="1" fill="#FFFFFF" opacity="0.019608" />
<rect x="4" y="3" width="1" height="1" fill="#FFFFFF" opacity="0.121569" />
<rect x="5" y="3" width="1" height="1" fill="#FF9EC1" />
<rect x="6" y="3" width="4" height="2" fill="#FBBBC7" />
<rect x="10" y="3" width="1" height="1" fill="#FF9EC1" />
<rect x="11" y="3" width="1" height="1" fill="#FFFFFF" opacity="0.121569" />
<rect x="12" y="3" width="1" height="1" fill="#FFFFFF" opacity="0.019608" />
<rect x="3" y="4" width="1" height="1" fill="#FFFFFF" opacity="0.121569" />
<rect x="4" y="4" width="1" height="1" fill="#FF9EC1" />
<rect x="5" y="4" width="1" height="2" fill="#FBBBC7" />
<rect x="10" y="4" width="1" height="2" fill="#FBBBC7" />
<rect x="11" y="4" width="1" height="1" fill="#FF9EC1" />
<rect x="12" y="4" width="1" height="1" fill="#FFFFFF" opacity="0.121569" />
<rect x="2" y="5" width="1" height="1" fill="#FFFFFF" opacity="0.066667" />
<rect x="3" y="5" width="1" height="1" fill="#FFFF50" />
<rect x="4" y="5" width="1" height="4" fill="#FBBBC7" />
<rect x="6" y="5" width="1" height="4" fill="#F9E3D3" />
<rect x="7" y="5" width="2" height="1" fill="#FBBBC7" />
<rect x="9" y="5" width="1" height="4" fill="#F9E3D3" />
<rect x="11" y="5" width="1" height="4" fill="#FBBBC7" />
<rect x="12" y="5" width="1" height="1" fill="#FFFF50" />
<rect x="13" y="5" width="1" height="1" fill="#FFFFFF" opacity="0.066667" />
<rect x="2" y="6" width="1" height="1" fill="#FFFFFF" opacity="0.121569" />
<rect x="3" y="6" width="1" height="2" fill="#4A9AE1" />
<rect x="5" y="6" width="1" height="2" fill="#F9E3D3" />
<rect x="7" y="6" width="2" height="3" fill="#F9E3D3" />
<rect x="10" y="6" width="1" height="2" fill="#F9E3D3" />
<rect x="12" y="6" width="1" height="2" fill="#4A9AE1" />
<rect x="13" y="6" width="1" height="1" fill="#FFFFFF" opacity="0.121569" />
<rect x="2" y="7" width="1" height="2" fill="#FFFFFF" opacity="0.149020" />
<rect x="13" y="7" width="1" height="2" fill="#FFFFFF" opacity="0.149020" />
<rect x="3" y="8" width="1" height="1" fill="#FFFF50" />
<rect x="5" y="8" width="1" height="1" fill="#D5A57A" />
<rect x="10" y="8" width="1" height="1" fill="#D5A57A" />
<rect x="12" y="8" width="1" height="1" fill="#FFFF50" />
<rect x="2" y="9" width="1" height="1" fill="#FFFFFF" opacity="0.121569" />
<rect x="3" y="9" width="1" height="1" fill="#FFFFFF" opacity="0.266667" />
<rect x="4" y="9" width="1" height="3" fill="#E5606B" />
<rect x="5" y="9" width="1" height="1" fill="#C44350" />
<rect x="6" y="9" width="4" height="1" fill="#D5A57A" />
<rect x="10" y="9" width="1" height="1" fill="#C44350" />
<rect x="11" y="9" width="1" height="3" fill="#E5606B" />
<rect x="12" y="9" width="1" height="1" fill="#FFFFFF" opacity="0.266667" />
<rect x="13" y="9" width="1" height="1" fill="#FFFFFF" opacity="0.121569" />
<rect x="2" y="10" width="1" height="1" fill="#FFFFFF" opacity="0.066667" />
<rect x="3" y="10" width="1" height="1" fill="#FFFFFF" opacity="0.207843" />
<rect x="5" y="10" width="1" height="2" fill="#D0525E" />
<rect x="6" y="10" width="4" height="1" fill="#C44350" />
<rect x="10" y="10" width="1" height="2" fill="#D0525E" />
<rect x="12" y="10" width="1" height="1" fill="#FFFFFF" opacity="0.207843" />
<rect x="13" y="10" width="1" height="1" fill="#FFFFFF" opacity="0.066667" />
<rect x="3" y="11" width="1" height="1" fill="#FFFFFF" opacity="0.121569" />
<rect x="6" y="11" width="1" height="3" fill="#D0525E" />
<rect x="7" y="11" width="2" height="3" fill="#C44350" />
<rect x="9" y="11" width="1" height="3" fill="#D0525E" />
<rect x="12" y="11" width="1" height="1" fill="#FFFFFF" opacity="0.121569" />
<rect x="3" y="12" width="1" height="1" fill="#FFFFFF" opacity="0.019608" />
<rect x="4" y="12" width="1" height="1" fill="#FFFFFF" opacity="0.121569" />
<rect x="5" y="12" width="1" height="2" fill="#E5606B" />
<rect x="10" y="12" width="1" height="2" fill="#E5606B" />
<rect x="11" y="12" width="1" height="1" fill="#FFFFFF" opacity="0.121569" />
<rect x="12" y="12" width="1" height="1" fill="#FFFFFF" opacity="0.019608" />
<rect x="6" y="14" width="4" height="1" fill="#E5606B" />
</svg>