<?xml version="1.0" encoding="UTF-8" ?>
<svg version="1.1" width="16" height="16" xmlns="http://www.w3.org/2000/svg" shape-rendering="crispEdges">
<rect x="4" y="0" width="1" height="1" fill="#FFD246" opacity="0.023529" />
<rect x="5" y="0" width="1" height="1" fill="#FFD246" opacity="0.066667" />
<rect x="6" y="0" width="1" height="1" fill="#FFD246" opacity="0.098039" />
<rect x="7" y="0" width="2" height="1" fill="#FFD246" opacity="0.113725" />
<rect x="9" y="0" width="1" height="1" fill="#FFD246" opacity="0.098039" />
<rect x="10" y="0" width="1" height="1" fill="#663931" />
<rect x="11" y="0" width="1" height="1" fill="#FFD246" opacity="0.023529" />
<rect x="3" y="1" width="1" height="1" fill="#FFD246" opacity="0.066667" />
<rect x="4" y="1" width="1" height="1" fill="#FFD246" opacity="0.129412" />
<rect x="5" y="1" width="2" height="1" fill="#663931" />
<rect x="7" y="1" width="2" height="1" fill="#FFD246" opacity="0.231373" />
<rect x="9" y="1" width="1" height="1" fill="#663931" />
<rect x="10" y="1" width="1" height="3" fill="#373A39" />
<rect x="11" y="1" width="1" height="1" fill="#663931" />
<rect x="12" y="1" width="1" height="1" fill="#FFD246" opacity="0.066667" />
<rect x="2" y="2" width="1" height="1" fill="#FFD246" opacity="0.082353" />
<rect x="3" y="2" width="1" height="1" fill="#FFD246" opacity="0.160784" />
<rect x="4" y="2" width="1" height="1" fill="#663931" />
<rect x="5" y="2" width="2" height="1" fill="#373A39" />
<rect x="7" y="2" width="2" height="1" fill="#663931" />
<rect x="9" y="2" width="1" height="1" fill="#414141" />
<rect x="11" y="2" width="1" height="2" fill="#414141" />
<rect x="12" y="2" width="1" height="3" fill="#663931" />
<rect x="13" y="2" width="1" height="1" fill="#FFD246" opacity="0.082353" />
<rect x="1" y="3" width="1" height="1" fill="#FFD246" opacity="0.066667" />
<rect x="2" y="3" width="1" height="1" fill="#FFD246" opacity="0.160784" />
<rect x="3" y="3" width="1" height="3" fill="#663931" />
<rect x="4" y="3" width="1" height="1" fill="#373A39" />
<rect x="5" y="3" width="1" height="1" fill="#E4F0F0" />
<rect x="6" y="3" width="2" height="1" fill="#4C4C4C" />
<rect x="8" y="3" width="1" height="5" fill="#FE9237" />
<rect x="9" y="3" width="1" height="1" fill="#4C4C4C" />
<rect x="13" y="3" width="1" height="1" fill="#FFD246" opacity="0.160784" />
<rect x="14" y="3" width="1" height="1" fill="#FFD246" opacity="0.066667" />
<rect x="0" y="4" width="1" height="1" fill="#FFD246" opacity="0.023529" />
<rect x="1" y="4" width="1" height="1" fill="#FFD246" opacity="0.129412" />
<rect x="2" y="4" width="1" height="1" fill="#FFD246" opacity="0.231373" />
<rect x="4" y="4" width="2" height="1" fill="#4C4C4C" />
<rect x="6" y="4" width="1" height="1" fill="#FF7E31" />
<rect x="7" y="4" width="1" height="5" fill="#FE9237" />
<rect x="9" y="4" width="1" height="3" fill="#FF7E31" />
<rect x="10" y="4" width="2" height="1" fill="#4C4C4C" />
<rect x="13" y="4" width="1" height="1" fill="#FFD246" opacity="0.231373" />
<rect x="14" y="4" width="1" height="1" fill="#FFD246" opacity="0.129412" />
<rect x="15" y="4" width="1" height="1" fill="#FFD246" opacity="0.023529" />
<rect x="0" y="5" width="1" height="1" fill="#FFD246" opacity="0.066667" />
<rect x="1" y="5" width="1" height="1" fill="#FFD246" opacity="0.180392" />
<rect x="2" y="5" width="1" height="1" fill="#FFD246" opacity="0.286275" />
<rect x="4" y="5" width="1" height="1" fill="#E4691D" />
<rect x="5" y="5" width="1" height="3" fill="#FF7E31" />
<rect x="6" y="5" width="1" height="2" fill="#FE9237" />
<rect x="10" y="5" width="1" height="3" fill="#FF7E31" />
<rect x="11" y="5" width="2" height="1" fill="#E4691D" />
<rect x="13" y="5" width="1" height="1" fill="#663931" />
<rect x="14" y="5" width="1" height="1" fill="#FFD246" opacity="0.180392" />
<rect x="15" y="5" width="1" height="1" fill="#FFD246" opacity="0.066667" />
<rect x="0" y="6" width="1" height="1" fill="#FFD246" opacity="0.098039" />
<rect x="1" y="6" width="1" height="1" fill="#FFD246" opacity="0.211765" />
<rect x="2" y="6" width="1" height="3" fill="#663931" />
<rect x="3" y="6" width="1" height="2" fill="#E4691D" />
<rect x="4" y="6" width="1" height="6" fill="#FF7E31" />
<rect x="11" y="6" width="1" height="2" fill="#FEFDF9" />
<rect x="12" y="6" width="2" height="1" fill="#E4691D" />
<rect x="14" y="6" width="1" height="7" fill="#663931" />
<rect x="15" y="6" width="1" height="1" fill="#FFD246" opacity="0.098039" />
<rect x="0" y="7" width="1" height="2" fill="#FFD246" opacity="0.113725" />
<rect x="1" y="7" width="1" height="2" fill="#FFD246" opacity="0.231373" />
<rect x="6" y="7" width="1" height="4" fill="#F9E3D3" />
<rect x="9" y="7" width="1" height="4" fill="#F9E3D3" />
<rect x="12" y="7" width="1" height="2" fill="#FEFDF9" />
<rect x="13" y="7" width="1" height="6" fill="#E4691D" />
<rect x="15" y="7" width="1" height="2" fill="#FFD246" opacity="0.113725" />
<rect x="3" y="8" width="1" height="1" fill="#4C4C4C" />
<rect x="5" y="8" width="1" height="2" fill="#F9E3D3" />
<rect x="8" y="8" width="1" height="3" fill="#F9E3D3" />
<rect x="10" y="8" width="1" height="2" fill="#F9E3D3" />
<rect x="11" y="8" width="1" height="4" fill="#FF7E31" />
<rect x="0" y="9" width="1" height="1" fill="#FFD246" opacity="0.098039" />
<rect x="1" y="9" width="1" height="1" fill="#FFD246" opacity="0.211765" />
<rect x="2" y="9" width="1" height="1" fill="#FFD246" opacity="0.325490" />
<rect x="3" y="9" width="1" height="1" fill="#663931" />
<rect x="7" y="9" width="1" height="2" fill="#F9E3D3" />
<rect x="12" y="9" width="1" height="2" fill="#E4691D" />
<rect x="15" y="9" width="1" height="1" fill="#FFD246" opacity="0.098039" />
<rect x="0" y="10" width="1" height="1" fill="#FFD246" opacity="0.066667" />
<rect x="1" y="10" width="1" height="1" fill="#FFD246" opacity="0.180392" />
<rect x="2" y="10" width="1" height="4" fill="#663931" />
<rect x="3" y="10" width="1" height="4" fill="#E4691D" />
<rect x="5" y="10" width="1" height="1" fill="#D5A57A" />
<rect x="10" y="10" width="1" height="1" fill="#D5A57A" />
<rect x="15" y="10" width="1" height="1" fill="#FFD246" opacity="0.066667" />
<rect x="0" y="11" width="1" height="1" fill="#FFD246" opacity="0.023529" />
<rect x="1" y="11" width="1" height="1" fill="#FFD246" opacity="0.129412" />
<rect x="5" y="11" width="1" height="1" fill="#663931" />
<rect x="6" y="11" width="4" height="1" fill="#D5A57A" />
<rect x="10" y="11" width="1" height="1" fill="#663931" />
<rect x="12" y="11" width="1" height="2" fill="#663931" />
<rect x="15" y="11" width="1" height="1" fill="#FFD246" opacity="0.023529" />
<rect x="1" y="12" width="1" height="1" fill="#FFD246" opacity="0.066667" />
<rect x="4" y="12" width="1" height="1" fill="#663931" />
<rect x="5" y="12" width="1" height="1" fill="#FFD246" opacity="0.392157" />
<rect x="6" y="12" width="4" height="1" fill="#663931" />
<rect x="10" y="12" width="1" height="1" fill="#FFD246" opacity="0.392157" />
<rect x="11" y="12" width="1" height="1" fill="#663931" />
<rect x="4" y="13" width="1" height="1" fill="#FFD246" opacity="0.231373" />
<rect x="5" y="13" width="1" height="1" fill="#FFD246" opacity="0.286275" />
<rect x="6" y="13" width="1" height="1" fill="#FFD246" opacity="0.325490" />
<rect x="7" y="13" width="2" height="1" fill="#FFD246" opacity="0.349020" />
<rect x="9" y="13" width="1" height="1" fill="#FFD246" opacity="0.325490" />
<rect x="10" y="13" width="1" height="1" fill="#FFD246" opacity="0.286275" />
<rect x="11" y="13" width="1" height="1" fill="#FFD246" opacity="0.231373" />
<rect x="12" y="13" width="1" height="1" fill="#FFD246" opacity="0.160784" />
<rect x="13" y="13" width="1" height="1" fill="#663931" />
<rect x="3" y="14" width="1" height="1" fill="#663931" />
<rect x="4" y="14" width="1" height="1" fill="#FFD246" opacity="0.129412" />
<rect x="5" y="14" width="1" height="1" fill="#FFD246" opacity="0.180392" />
<rect x="6" y="14" width="1" height="1" fill="#FFD246" opacity="0.211765" />
<rect x="7" y="14" width="2" height="1" fill="#FFD246" opacity="0.231373" />
<rect x="9" y="14" width="1" height="1" fill="#FFD246" opacity="0.211765" />
<rect x="10" y="14" width="1" height="1" fill="#FFD246" opacity="0.180392" />
<rect x="11" y="14" width="1" height="1" fill="#FFD246" opacity="0.129412" />
<rect x="12" y="14" width="1" height="1" fill="#FFD246" opacity="0.066667" />
<rect x="4" y="15" width="1" height="1" fill="#FFD246" opacity="0.023529" />
<rect x="5" y="15" width="1" height="1" fill="#FFD246" opacity="0.066667" />
<rect x="6" y="15" width="1" height="1" fill="#FFD246" opacity="0.098039" />
<rect x="7" y="15" width="2" height="1" fill="#FFD246" opacity="0.113725" />
<rect x="9" y="15" width="1" height="1" fill="#FFD246" opacity="0.098039" />
<rect x="10" y="15" width="1" height="1" fill="#FFD246" opacity="0.066667" />
<rect x="11" y="15" width="1" height="1" fill="#FFD246" opacity="0.023529" />
</svg>